<?xml version="1.0" encoding="UTF-8"?>
<svg width="416px" height="156px" viewBox="0 0 416 156" version="1.1" xmlns="http://www.w3.org/2000/svg" xmlns:xlink="http://www.w3.org/1999/xlink">
    <title>Hub</title>
    <g id="页面-1" stroke="none" stroke-width="1" fill="none" fill-rule="evenodd">
        <g id="编组-21备份" transform="translate(19.000000, 19.000000)" fill-rule="nonzero">
            <g id="Dashboard-(1)" transform="translate(0.646550, 0.646550)">
                <path d="M47.80665,66.1924085 L5.74545565,43.9031689 C2.21033783,42.0286426 0,38.3551149 0,34.3543614 C0,30.3536079 2.21033783,26.6800802 5.74545565,24.8055538 L47.80665,2.51631417 C54.1390337,-0.838771389 61.7227339,-0.838771389 68.0551176,2.51631417 L110.116312,24.8055538 C113.65143,26.6800802 115.861768,30.3536079 115.861768,34.3543614 C115.861768,38.3551149 113.65143,42.0286426 110.116312,43.9031689 L68.0551176,66.1924085 C61.7227339,69.547494 54.1390337,69.547494 47.80665,66.1924085 L47.80665,66.1924085 Z" id="路径" fill="#FFCC66"></path>
                <path d="M57.9308838,115.861768 C53.8626837,115.860631 49.8565564,114.876055 46.2619733,112.993927 L8.0286551,92.9761686 C3.08918062,90.3916667 0,85.3216978 0,79.7995251 C0,74.2773523 3.08918062,69.2073834 8.0286551,66.6228816 C10.5962603,65.27565 13.7831651,66.2399109 15.1468061,68.7766187 C16.5104472,71.3133264 15.5344414,74.4618814 12.9668362,75.809113 C11.475595,76.5926242 10.5436367,78.1251326 10.5436367,79.7938123 C10.5436367,81.4624919 11.475595,82.9950003 12.9668362,83.7785115 L51.1885897,103.801982 C55.4046313,106.014024 60.4571363,106.014024 64.6731779,103.801982 L102.894931,83.7785115 C104.386173,82.9950003 105.318131,81.4624919 105.318131,79.7938123 C105.318131,78.1251326 104.386173,76.5926242 102.894931,75.809113 C100.327326,74.4618814 99.3513204,71.3133264 100.714961,68.7766187 C102.078603,66.2399109 105.265507,65.27565 107.833113,66.6228816 C112.772587,69.2073834 115.861768,74.2773523 115.861768,79.7995251 C115.861768,85.3216978 112.772587,90.3916667 107.833113,92.9761686 L69.5997943,112.993927 C66.0052112,114.876055 61.9990839,115.860631 57.9308838,115.861768 Z" id="路径" fill="#009999"></path>
            </g>
            <path d="M181,95.2 L181,65.2 L217.2,65.2 L217.2,95.2 L230.2,95.2 L230.2,25.2 L217.2,25.2 L217.2,54.1 L181,54.1 L181,25.2 L168,25.2 L168,95.2 L181,95.2 Z M272.483333,95.9 C275.95,95.9 279.183333,95.25 282.183333,93.95 C285.183333,92.65 287.683333,90.8 289.683333,88.4 L289.683333,88.4 L289.683333,95.2 L301.583333,95.2 L301.583333,41.8 L289.083333,41.8 L289.083333,68.8 C289.083333,74 287.766667,77.9833333 285.133333,80.75 C282.5,83.5166667 278.95,84.9 274.483333,84.9 C270.483333,84.9 267.4,83.7166667 265.233333,81.35 C263.066667,78.9833333 261.983333,75.4 261.983333,70.6 L261.983333,70.6 L261.983333,41.8 L249.483333,41.8 L249.483333,72.3 C249.483333,80.1 251.533333,85.9833333 255.633333,89.95 C259.733333,93.9166667 265.35,95.9 272.483333,95.9 Z M349.666667,95.9 C354.866667,95.9 359.516667,94.7666667 363.616667,92.5 C367.716667,90.2333333 370.933333,87.0166667 373.266667,82.85 C375.6,78.6833333 376.766667,73.9 376.766667,68.5 C376.766667,63.1 375.6,58.3333333 373.266667,54.2 C370.933333,50.0666667 367.716667,46.8666667 363.616667,44.6 C359.516667,42.3333333 354.866667,41.2 349.666667,41.2 C346.2,41.2 343.016667,41.8 340.116667,43 C337.216667,44.2 334.7,45.9666667 332.566667,48.3 L332.566667,48.3 L332.566667,21 L320.066667,21 L320.066667,95.2 L331.966667,95.2 L331.966667,88.3 C334.033333,90.8333333 336.583333,92.7333333 339.616667,94 C342.65,95.2666667 346,95.9 349.666667,95.9 Z M348.266667,85.2 C345.266667,85.2 342.566667,84.5166667 340.166667,83.15 C337.766667,81.7833333 335.866667,79.8333333 334.466667,77.3 C333.066667,74.7666667 332.366667,71.8333333 332.366667,68.5 C332.366667,65.1666667 333.066667,62.2333333 334.466667,59.7 C335.866667,57.1666667 337.766667,55.2166667 340.166667,53.85 C342.566667,52.4833333 345.266667,51.8 348.266667,51.8 C352.866667,51.8 356.65,53.3333333 359.616667,56.4 C362.583333,59.4666667 364.066667,63.5 364.066667,68.5 C364.066667,73.5 362.583333,77.5333333 359.616667,80.6 C356.65,83.6666667 352.866667,85.2 348.266667,85.2 Z" id="Hub" fill="#009999"></path>
        </g>
    </g>
</svg>